HIERARCHY
ROOT hip
{
	OFFSET 0.000000 0.000000 0.000000 
	CHANNELS 6 Xposition Yposition Zposition Xrotation Zrotation Yrotation
	JOINT abdomen
	{
		OFFSET 0.000000 3.402643 0.000000 
		CHANNELS 3 Xrotation Zrotation Yrotation
		JOINT chest
		{
			OFFSET 0.000000 8.438565 -0.680529 
			CHANNELS 3 Xrotation Zrotation Yrotation
			JOINT neck
			{
				OFFSET 0.000000 10.207942 -0.272212 
				CHANNELS 3 Xrotation Zrotation Yrotation
				JOINT head
				{
					OFFSET 0.000000 3.130431 0.000000 
					CHANNELS 3 Xrotation Zrotation Yrotation
					End Site
					{
						OFFSET 0.000000 3.130435 0.000000 
					}
				}
			}
			JOINT lCollar
			{
				OFFSET 3.470700 6.669187 -0.816635 
				CHANNELS 3 Zrotation Yrotation Xrotation
				JOINT lShldr
				{
					OFFSET 3.198488 0.000000 0.000000 
					CHANNELS 3 Zrotation Yrotation Xrotation
					JOINT lForeArm
					{
						OFFSET 10.139888 0.000000 0.000000 
						CHANNELS 3 Yrotation Zrotation Xrotation
						JOINT lHand
						{
							OFFSET 8.370511 0.000000 0.000000 
							CHANNELS 3 Zrotation Yrotation Xrotation
							End Site
							{
								OFFSET 4.083176 0.000000 0.000000 
							}
						}
					}
				}
			}
			JOINT rCollar
			{
				OFFSET -3.470700 6.669187 -0.816635 
				CHANNELS 3 Zrotation Yrotation Xrotation
				JOINT rShldr
				{
					OFFSET -3.198488 0.000000 0.000000 
					CHANNELS 3 Zrotation Yrotation Xrotation
					JOINT rForeArm
					{
						OFFSET -10.139888 0.000000 0.000000 
						CHANNELS 3 Yrotation Zrotation Xrotation
						JOINT rHand
						{
							OFFSET -8.370511 0.000000 0.000000 
							CHANNELS 3 Zrotation Yrotation Xrotation
							End Site
							{
								OFFSET -4.083176 0.000000 0.000000 
							}
						}
					}
				}
			}
		}
	}
	JOINT lThigh
	{
		OFFSET 5.308129 -1.633274 1.361059 
		CHANNELS 3 Xrotation Zrotation Yrotation
		JOINT lShin
		{
			OFFSET -2.041588 -20.007561 0.000000 
			CHANNELS 3 Xrotation Zrotation Yrotation
			JOINT lFoot
			{
				OFFSET 0.000000 -19.190928 -1.224953 
				CHANNELS 3 Xrotation Yrotation Zrotation
				End Site
				{
					OFFSET 0.000000 -2.449906 4.627600 
				}
			}
		}
	}
	JOINT rThigh
	{
		OFFSET -5.308129 -1.633274 1.361059 
		CHANNELS 3 Xrotation Zrotation Yrotation
		JOINT rShin
		{
			OFFSET 2.041588 -20.007561 0.000000 
			CHANNELS 3 Xrotation Zrotation Yrotation
			JOINT rFoot
			{
				OFFSET 0.000000 -19.190928 -1.224953 
				CHANNELS 3 Xrotation Yrotation Zrotation
				End Site
				{
					OFFSET 0.000000 -2.449906 4.627600 
				}
			}
		}
	}
}
MOTION
Frames: 18
Frame Time: 0.016667
-0.091124 53.366673 4.075314 -2.478852 1.134174 6.954656 39.819294 1.048933 -0.138917 0.057728 2.539063 -0.097637 -14.305503 -2.924481 0.580879 4.169040 -9.172844 6.350937 9.085729 -5.599511 -0.361792 -35.186314 -52.395878 3.022559 -90.633781 5.000000 0.414544 -12.066525 -16.983673 -5.831983 -16.753117 2.801232 0.106009 40.723686 59.970066 5.972082 88.265411 -5.000000 -0.819524 13.238028 1.351309 -12.614218 -9.745543 15.780164 5.099441 33.417778 -5.986838 -4.374102 -4.337398 6.332836 -9.497081 -6.142492 -10.341286 -8.923172 33.555641 6.483112 4.828137 -11.717939 -6.799706 6.867445 
-0.140552 55.037289 4.800301 -3.166071 2.075776 6.654850 38.702965 -0.158286 -0.742730 0.179426 2.392570 -0.292841 -12.322401 -2.264698 0.372166 6.030892 -8.734590 6.431684 14.213514 -4.597837 -0.403928 -37.350033 -51.481842 1.329700 -96.290367 5.000000 3.656805 -12.513566 -16.632002 -4.488166 -21.895533 1.501757 0.579270 43.974583 60.158352 4.658414 94.968933 -5.000000 2.574624 12.794086 1.808566 -12.941199 -3.876961 14.842655 5.923844 23.765888 -6.555271 -3.236135 4.541696 4.502098 -10.781429 -1.074478 -10.321299 -8.667608 24.751068 6.295526 3.271786 -4.483835 -5.904795 8.803523 
-0.229171 56.731407 5.441647 -3.299714 2.338587 6.460836 37.250881 -0.823162 -0.924436 0.029883 2.314376 -0.751965 -10.315769 -1.781033 0.239809 7.783945 -8.322291 6.710316 18.565989 -3.793979 -0.238225 -39.631500 -49.740055 0.394969 -100.220840 5.000000 5.753786 -12.947900 -16.098001 -3.351822 -26.114059 0.485823 1.245539 45.787037 60.089832 3.152887 99.141777 -5.000000 4.716661 11.876837 2.074785 -12.480330 1.132120 14.540012 6.262566 13.633772 -7.068458 -2.052387 18.169544 1.472126 -11.586037 3.444656 -9.370182 -9.254138 14.945130 5.171630 1.756819 7.293459 -4.519886 11.327424 
-0.317816 58.425388 6.082863 -3.426440 2.591865 6.266584 35.806450 -1.487965 -1.082374 -0.118265 2.226356 -1.201720 -8.320751 -1.295899 0.117057 9.548238 -7.919790 7.000348 22.918102 -3.015375 -0.011602 -41.880264 -48.025940 -0.609328 -104.046776 5.000000 7.668521 -13.367146 -15.542114 -2.214587 -29.972834 -0.486470 1.985647 47.627819 60.040485 1.676467 103.306221 -5.000000 6.856194 10.952529 2.361455 -12.019481 6.169065 14.224348 6.576460 3.470252 -7.383802 -0.777957 31.697836 -1.689425 -11.607599 7.974211 -8.375706 -9.771152 5.181859 3.813884 0.466502 18.918821 -2.578527 13.564671 
-0.465406 60.051430 6.433629 -2.905089 2.445137 6.500285 34.537132 -1.789433 -1.219916 -0.430340 2.196907 -1.582768 -6.943409 -0.585188 0.049031 10.711072 -7.539705 7.122203 24.727743 -2.691505 0.124646 -41.344864 -46.862030 -1.904608 -106.734253 5.000000 8.947636 -14.103493 -14.950408 -0.800247 -29.966698 -1.748558 2.733393 44.653294 60.662823 -1.378197 105.112633 -5.000000 7.763006 10.546757 2.213723 -10.466910 7.176178 14.626773 5.485394 1.032212 -7.503880 -0.468613 35.726372 -2.311241 -11.419767 9.447036 -7.466881 -11.258066 1.588243 3.515819 0.143338 24.784697 -2.327467 14.462125 
-0.627769 61.660248 6.711501 -2.228575 2.181638 6.840995 33.316788 -2.010305 -1.350860 -0.790613 2.167428 -1.953687 -5.732372 0.187842 0.001242 11.724188 -7.160407 7.204383 25.894537 -2.474442 0.237041 -40.168926 -45.805878 -3.212905 -109.125168 5.000000 10.036691 -14.898027 -14.319770 0.701145 -29.960016 -3.069905 3.518801 40.269135 61.343590 -5.016517 106.332520 -5.000000 8.357107 10.253211 1.956319 -8.638233 7.134513 15.217375 4.030621 0.525541 -7.576605 -0.415122 37.385178 -2.359740 -11.345850 10.133435 -6.580391 -12.988942 -0.467233 3.497239 0.071210 29.202341 -2.551625 15.144515 
-0.778780 63.172386 6.889573 -1.819938 1.928413 7.113544 32.624218 -2.139960 -1.427054 -0.960825 2.157562 -2.149286 -4.853107 0.756639 -0.025463 12.402193 -6.811472 7.209338 26.382059 -2.450213 0.254153 -38.796879 -44.943596 -4.352753 -111.256042 5.000000 11.057566 -15.421355 -13.788064 2.210503 -29.956282 -4.039124 4.071083 36.287708 61.382023 -8.199170 107.570801 -5.000000 8.976007 10.054286 1.463470 -6.812343 6.796496 15.761788 3.013582 1.335610 -7.435937 -0.529564 36.812958 -2.599045 -10.813302 10.306759 -5.994131 -13.814346 -0.829736 3.579932 0.034592 32.192623 -2.134687 15.464878 
-0.912714 64.539261 6.917946 -1.805948 1.685498 7.288593 32.693962 -2.100470 -1.432426 -0.881091 2.167369 -2.100492 -4.491302 1.032843 -0.027706 12.613693 -6.483721 7.086178 25.870056 -2.694001 0.129921 -37.117828 -44.378925 -5.267784 -113.074188 5.000000 12.094667 -15.545179 -13.441246 3.786127 -29.958286 -4.469592 4.244887 33.116962 60.595367 -10.466404 108.834518 -5.000000 9.632046 9.967659 0.586489 -5.023233 5.945246 16.245481 2.615364 4.127583 -6.911336 -0.787699 32.900833 -3.483367 -9.798038 9.751989 -5.887087 -13.367891 1.375012 3.761430 0.195417 33.083344 -0.806232 15.263150 
-1.046635 65.906006 6.946179 -1.785187 1.433105 7.453713 32.763809 -2.073478 -1.432062 -0.801188 2.186946 -2.051705 -4.129317 1.299391 -0.028495 12.814014 -6.155773 6.963297 25.358358 -2.939954 0.010558 -35.453033 -43.795349 -6.151759 -114.890190 5.000000 13.139079 -15.670455 -13.109176 5.357611 -29.460979 -4.912791 4.396280 30.078808 59.756607 -12.586728 110.094429 -5.000000 10.285858 9.835384 -0.283149 -3.230366 5.105520 16.724865 2.199954 6.910565 -6.395076 -1.049196 29.040878 -4.443903 -8.913960 9.195380 -5.759905 -12.910089 3.577791 3.926381 0.353806 33.894226 0.470708 14.968874 
-1.146520 66.957458 7.076775 -2.626721 1.414877 7.092252 33.397594 -2.229974 -1.377288 -0.464482 2.177279 -1.856107 -3.689016 1.536971 -0.024913 13.070140 -6.099368 6.825293 24.740103 -3.569626 -0.280408 -36.133415 -42.894928 -5.512591 -116.098999 5.000000 13.833181 -14.466331 -13.581532 4.704993 -28.791731 -4.371142 3.978859 31.493301 58.532845 -11.076262 110.819702 -5.000000 10.548122 8.616669 -0.606868 -2.452331 6.238162 17.073271 1.236176 7.218902 -6.418840 -1.079650 28.184052 -3.541092 -8.761360 10.010590 -5.670336 -10.904380 3.745597 3.997254 0.376593 33.154377 -0.482224 15.300852 
-1.246371 68.008575 7.207459 -3.468255 1.396591 6.720791 34.020771 -2.385582 -1.303106 -0.127995 2.177365 -1.660879 -3.248538 1.764894 -0.019879 13.324845 -6.052593 6.687290 24.124508 -4.214477 -0.561627 -36.794456 -41.986408 -4.896361 -117.295525 5.000000 14.525596 -13.239866 -14.045564 4.022401 -28.131342 -3.809605 3.580266 32.793598 57.281609 -9.656009 111.538712 -5.000000 10.799072 7.391195 -0.908458 -1.653775 7.369345 17.443144 0.271150 7.520567 -6.459494 -1.129553 27.324373 -2.654926 -8.645628 10.852525 -5.622712 -8.901278 3.884054 4.067844 0.397424 32.397945 -1.412567 15.634176 
-1.351257 68.864616 7.310940 -3.869409 1.464362 6.760087 34.237019 -2.597235 -1.404030 0.055130 2.206622 -1.738967 -2.728747 2.161345 -0.010727 13.572234 -5.995112 6.628002 23.475632 -4.695681 -0.753336 -38.211464 -41.448284 -3.684042 -117.842293 5.000000 14.798691 -12.499393 -14.444406 4.320316 -27.364244 -3.240584 3.167229 35.269344 56.413910 -7.148388 111.482170 -5.000000 10.616878 6.469542 -0.823110 -0.368566 7.889556 17.623875 -0.319225 7.682626 -6.403702 -1.141490 27.449390 -1.655807 -8.413118 11.398476 -5.514317 -8.724572 3.737651 4.017593 0.405448 31.421787 -2.459084 15.613751 
-1.459510 69.590492 7.396266 -3.962974 1.589381 7.073266 34.173115 -2.819704 -1.631655 0.144873 2.274832 -2.012656 -2.168033 2.668383 0.011259 13.814542 -5.927210 6.626992 22.803637 -5.064670 -0.885096 -40.121040 -41.120491 -2.064151 -117.944824 5.000000 14.787889 -12.084117 -14.836018 5.259564 -26.537741 -2.653122 2.769991 38.487583 55.711559 -3.931587 110.893005 -5.000000 10.151065 5.772655 -0.458135 1.229600 8.016837 17.673275 -0.650544 7.700754 -6.304848 -1.119033 28.128796 -0.537704 -8.160581 11.751095 -5.378709 -9.745070 3.397661 3.903667 0.349920 30.255068 -3.522794 15.369596 
-1.563739 70.256729 7.461265 -3.997062 1.694549 7.454537 34.099232 -3.010086 -1.833211 0.223808 2.352767 -2.286343 -1.665419 3.135332 0.029906 13.985217 -5.878592 6.635705 22.015041 -5.457108 -1.009642 -41.877743 -40.818665 -0.496448 -117.901184 5.000000 14.696875 -11.769838 -15.142304 6.349962 -25.633575 -2.076766 2.378402 41.389271 54.955578 -0.959430 110.146095 -5.000000 9.590862 5.145795 -0.136568 2.713533 7.947074 17.671267 -0.616442 7.816904 -6.159998 -1.093502 28.777721 0.331114 -7.845185 11.960336 -5.224041 -11.101439 3.173752 3.786624 0.332632 29.056055 -4.355909 15.048029 
-1.651888 70.685066 7.445043 -3.739504 1.720953 8.099653 33.945160 -2.942393 -1.972617 0.281622 2.440405 -2.569782 -1.456815 3.453065 0.041018 13.892581 -5.858375 6.704703 20.759243 -5.944610 -1.130779 -43.112514 -40.745144 0.991817 -117.234955 5.000000 14.235375 -11.731847 -15.042517 8.017560 -24.416197 -1.526196 2.010881 43.510212 54.259644 1.548511 108.716148 -5.000000 8.638884 4.684323 -0.051486 3.738731 7.177408 17.614672 1.003507 8.320107 -5.927084 -1.107063 28.877323 -0.166887 -7.059821 11.618080 -5.087111 -13.671324 3.356825 3.744717 0.296546 28.115301 -4.150752 14.526030 
-1.740018 71.113190 7.428743 -3.481026 1.747000 8.754237 33.800282 -2.887967 -2.108450 0.338956 2.537772 -2.843464 -1.247820 3.780450 0.051273 13.800991 -5.838274 6.762989 19.502455 -6.429231 -1.228695 -44.328552 -40.648800 2.464966 -116.570610 5.000000 13.782790 -11.703966 -14.960258 9.668486 -23.208982 -0.964566 1.652571 45.532139 53.517174 3.978253 107.297638 -5.000000 7.728984 4.226854 0.039574 4.771676 6.414351 17.586157 2.597735 8.810301 -5.689936 -1.128273 28.961075 -0.655612 -6.254835 11.250812 -4.958353 -16.262598 3.529636 3.691126 0.298514 27.187529 -3.946669 14.023063 
-1.798066 71.295586 7.343310 -3.286475 1.715918 9.203537 33.943665 -2.628017 -2.093922 0.501011 2.606040 -2.892248 -1.374688 3.896319 0.033758 13.427230 -5.925313 6.784411 17.982473 -7.030497 -1.310276 -44.900532 -40.614262 3.574257 -115.160461 5.000000 12.976328 -11.594819 -15.173255 10.780586 -22.088701 -0.400220 1.336853 46.900448 53.097172 5.784945 104.766541 -5.000000 6.378390 4.584373 -0.376498 5.172009 5.386701 17.540695 3.241156 9.305776 -5.691037 -1.171155 28.525677 -0.696211 -6.584850 10.534286 -5.107247 -17.102509 4.009221 3.733104 0.332822 26.381668 -3.762650 13.824083 
-1.848563 71.416336 7.240532 -3.105511 1.675466 9.593987 34.144642 -2.313493 -2.056165 0.693637 2.674348 -2.892227 -1.590169 3.952795 0.015366 12.982718 -6.031738 6.804847 16.384985 -7.653248 -1.378339 -45.311325 -40.587543 4.587639 -113.555969 5.000000 12.080853 -11.474889 -15.463251 11.744135 -20.997736 0.165604 1.041504 48.068264 52.748863 7.422460 101.972748 -5.000000 4.991195 5.139649 -0.933687 5.436054 4.324028 17.514738 3.673823 9.810205 -5.761107 -1.249776 27.907970 -0.613531 -7.202713 9.685815 -5.302714 -17.503918 4.584416 3.771919 0.393842 25.680740 -3.612386 13.707448 
